<?xml version="1.0" standalone="no"?>
<!DOCTYPE svg PUBLIC "-//W3C//DTD SVG 20010904//EN"
 "http://www.w3.org/TR/2001/REC-SVG-20010904/DTD/svg10.dtd">
<svg version="1.0" xmlns="http://www.w3.org/2000/svg"
 width="160.000000pt" height="160.000000pt" viewBox="0 0 160.000000 160.000000"
 preserveAspectRatio="xMidYMid meet">

<g transform="translate(0.000000,160.000000) scale(0.100000,-0.100000)"
fill="#000000" stroke="none">
<path d="M510 1234 c-131 -39 -137 -44 -203 -174 -78 -156 -108 -275 -110
-438 l-2 -124 30 -24 c17 -13 33 -24 38 -24 4 0 7 29 7 63 0 117 83 235 177
253 25 5 37 15 49 40 36 76 107 96 164 47 17 -14 36 -37 41 -50 8 -22 13 -23
99 -23 86 0 91 1 99 23 5 13 24 36 42 51 47 39 101 32 146 -19 30 -35 32 -36
60 -22 72 38 110 108 119 219 6 64 4 78 -16 111 -27 45 -47 56 -161 91 -106
32 -111 32 -131 -2 l-16 -27 -142 0 -142 0 -16 28 c-20 33 -24 33 -132 1z"/>
</g>
</svg>
